<svg width="1163" height="580" viewBox="0 0 1163 580" fill="none" xmlns="http://www.w3.org/2000/svg">
<rect width="1163" height="580" fill="black"/>
<g clip-path="url(#clip0_5_804)">
<g opacity="0.5" filter="url(#filter0_f_5_804)">
<path d="M126.368 261.495L171.682 198.374V189.205L233.209 148.674L365.166 220.167L159.324 341.493L144.706 349.998L111.883 308.271L126.368 261.495Z" fill="url(#paint0_linear_5_804)"/>
</g>
<path d="M362.359 194.648L262.171 136.805C248.768 129.065 232.252 129.065 218.849 136.805L118.661 194.648C105.258 202.384 97 216.686 97 232.164V347.85C97 363.329 105.258 377.63 118.661 385.37L218.849 443.213C232.252 450.952 248.768 450.952 262.171 443.213L362.359 385.37C375.762 377.63 384.02 363.329 384.02 347.85V232.164C384.02 216.686 375.762 202.384 362.359 194.648ZM189.293 372.068C189.293 374.162 188.176 376.099 186.364 377.147L173.405 384.633C169.495 386.893 164.605 384.07 164.605 379.555V341.32C164.605 339.223 163.489 337.286 161.671 336.239L129.579 317.725C125.666 315.468 125.666 309.826 129.573 307.567L142.259 300.237C144.074 299.19 146.312 299.19 148.127 300.237L186.364 322.331C188.176 323.381 189.293 325.315 189.293 327.41V372.068ZM263.938 380.955C263.938 383.049 262.822 384.984 261.007 386.034L223.267 407.83C219.357 410.089 214.467 407.267 214.467 402.751V312.577C214.467 310.48 213.348 308.542 211.533 307.495L135.447 263.624C131.535 261.37 131.532 255.722 135.444 253.466L172.631 231.989C174.447 230.939 176.682 230.939 178.497 231.989L261.007 279.642C262.822 280.689 263.938 282.624 263.938 284.718V380.955ZM354.583 359.289C354.583 361.384 353.464 363.321 351.649 364.368L298.061 395.304C294.149 397.561 289.261 394.738 289.261 390.223V266.885C289.261 264.788 288.142 262.851 286.327 261.803L182.109 201.744C178.194 199.49 178.194 193.842 182.106 191.583L234.961 161.072C236.776 160.025 239.011 160.025 240.826 161.072L351.649 225.044C353.464 226.094 354.583 228.029 354.583 230.126V359.289Z" fill="white"/>
</g>
<path d="M431.989 223.727H479.85C494.957 223.727 508.37 226.551 520.088 232.199C531.806 237.846 540.983 246.246 547.619 257.4C554.254 268.412 557.572 281.825 557.572 297.637C557.572 313.45 554.254 326.933 547.619 338.087C540.983 349.24 531.806 357.711 520.088 363.5C508.37 369.147 494.957 371.971 479.85 371.971H431.989V223.727ZM479.85 347.405C495.804 347.405 508.37 343.169 517.547 334.698C526.865 326.086 531.524 313.803 531.524 297.849C531.524 281.895 526.865 269.683 517.547 261.212C508.37 252.6 495.804 248.293 479.85 248.293H457.19V347.405H479.85ZM615.49 374.088C606.172 374.088 597.701 372.112 590.077 368.159C582.594 364.064 576.594 357.993 572.076 349.946C567.558 341.757 565.299 331.874 565.299 320.297C565.299 309.426 567.346 300.037 571.44 292.131C575.676 284.225 581.394 278.295 588.594 274.342C595.936 270.248 604.195 268.2 613.372 268.2C626.643 268.2 637.373 272.577 645.562 281.331C653.751 289.943 657.845 303.143 657.845 320.933V327.71H588.171C589.018 335.757 591.983 341.899 597.065 346.134C602.148 350.228 608.431 352.276 615.913 352.276C621.137 352.276 625.796 351.217 629.89 349.099C633.985 346.981 637.02 343.734 638.997 339.357L653.398 353.546C645.068 367.241 632.432 374.088 615.49 374.088ZM636.456 311.826C635.891 304.908 633.561 299.543 629.467 295.731C625.373 291.919 620.078 290.013 613.584 290.013C607.23 290.013 601.795 291.849 597.277 295.52C592.759 299.19 589.865 304.626 588.594 311.826H636.456ZM658.123 270.318H681.63L704.29 343.804L726.738 270.318H750.245L715.938 371.971H692.431L658.123 270.318ZM782.89 326.227V371.971H758.113V219.492H782.89V309.92L820.375 270.318H847.059L804.068 317.121L849.812 371.971H822.069L782.89 326.227ZM925.545 309.92C925.545 296.367 919.333 289.59 906.908 289.59C900.414 289.59 895.19 291.637 891.237 295.731C887.425 299.684 884.813 306.179 883.401 315.215V371.971H858.623V270.318H883.401V290.225H883.825C887.072 282.884 891.166 277.377 896.108 273.707C901.19 270.036 907.967 268.2 916.438 268.2C926.604 268.2 934.792 271.095 941.004 276.883C947.216 282.672 950.322 291.496 950.322 303.355V371.971H925.545V309.92ZM963.532 270.318H988.31V371.971H963.532V270.318ZM976.239 254.223C972.144 254.223 968.615 252.811 965.65 249.988C962.685 247.023 961.202 243.493 961.202 239.399C961.202 235.305 962.685 231.775 965.65 228.81C968.615 225.845 972.144 224.363 976.239 224.363C980.333 224.363 983.792 225.845 986.616 228.81C989.58 231.775 991.063 235.305 991.063 239.399C991.063 243.352 989.58 246.811 986.616 249.776C983.792 252.741 980.333 254.223 976.239 254.223ZM1019.49 288.743H999.368V270.318H1019.49V241.093L1043.21 237.493V270.318H1064.17V288.743H1044.27V371.971H1019.49V288.743Z" fill="white"/>
<defs>
<filter id="filter0_f_5_804" x="79.5386" y="116.329" width="317.972" height="266.013" filterUnits="userSpaceOnUse" color-interpolation-filters="sRGB">
<feFlood flood-opacity="0" result="BackgroundImageFix"/>
<feBlend mode="normal" in="SourceGraphic" in2="BackgroundImageFix" result="shape"/>
<feGaussianBlur stdDeviation="16.1723" result="effect1_foregroundBlur_5_804"/>
</filter>
<linearGradient id="paint0_linear_5_804" x1="238.525" y1="148.674" x2="238.525" y2="349.998" gradientUnits="userSpaceOnUse">
<stop stop-color="#8A8A8A"/>
<stop offset="1" stop-color="#242424"/>
</linearGradient>
<clipPath id="clip0_5_804">
<rect width="287.02" height="318.017" fill="white" transform="translate(97 131)"/>
</clipPath>
</defs>
</svg>
