<svg width="959" height="680" viewBox="0 0 959 680" fill="none" xmlns="http://www.w3.org/2000/svg">
<rect width="959" height="680" fill="black"/>
<g clip-path="url(#clip0_5_811)">
<g opacity="0.5" filter="url(#filter0_f_5_811)">
<path d="M365.858 225.495L411.172 162.374V153.205L472.699 112.674L604.656 184.167L398.814 305.493L384.196 313.998L351.373 272.271L365.858 225.495Z" fill="url(#paint0_linear_5_811)"/>
</g>
<path d="M601.849 158.648L501.661 100.805C488.258 93.0652 471.742 93.0652 458.339 100.805L358.151 158.648C344.748 166.384 336.49 180.686 336.49 196.164V311.85C336.49 327.329 344.748 341.63 358.151 349.37L458.339 407.213C471.742 414.952 488.258 414.952 501.661 407.213L601.849 349.37C615.252 341.63 623.51 327.329 623.51 311.85V196.164C623.51 180.686 615.252 166.384 601.849 158.648ZM428.783 336.068C428.783 338.162 427.666 340.099 425.854 341.147L412.895 348.633C408.985 350.893 404.095 348.07 404.095 343.555V305.32C404.095 303.223 402.979 301.286 401.161 300.239L369.069 281.725C365.156 279.468 365.156 273.826 369.063 271.567L381.749 264.237C383.564 263.19 385.802 263.19 387.617 264.237L425.854 286.331C427.666 287.381 428.783 289.315 428.783 291.41V336.068ZM503.428 344.955C503.428 347.049 502.312 348.984 500.497 350.034L462.757 371.83C458.847 374.089 453.957 371.267 453.957 366.751V276.577C453.957 274.48 452.838 272.542 451.023 271.495L374.937 227.624C371.025 225.37 371.022 219.722 374.934 217.466L412.121 195.989C413.937 194.939 416.172 194.939 417.987 195.989L500.497 243.642C502.312 244.689 503.428 246.624 503.428 248.718V344.955ZM594.073 323.289C594.073 325.384 592.954 327.321 591.139 328.368L537.551 359.304C533.639 361.561 528.751 358.738 528.751 354.223V230.885C528.751 228.788 527.632 226.851 525.817 225.803L421.599 165.744C417.684 163.49 417.684 157.842 421.596 155.583L474.451 125.072C476.266 124.025 478.501 124.025 480.316 125.072L591.139 189.044C592.954 190.094 594.073 192.029 594.073 194.126V323.289Z" fill="white"/>
</g>
<path d="M165.989 452.774H213.85C228.957 452.774 242.369 455.598 254.087 461.245C265.806 466.892 274.983 475.293 281.618 486.446C288.254 497.459 291.572 510.871 291.572 526.684C291.572 542.496 288.254 555.98 281.618 567.133C274.983 578.287 265.806 586.758 254.087 592.546C242.369 598.194 228.957 601.017 213.85 601.017H165.989V452.774ZM213.85 576.451C229.804 576.451 242.369 572.216 251.546 563.745C260.864 555.132 265.523 542.849 265.523 526.896C265.523 510.942 260.864 498.729 251.546 490.258C242.369 481.646 229.804 477.34 213.85 477.34H191.19V576.451H213.85ZM349.489 603.135C340.171 603.135 331.7 601.158 324.076 597.205C316.593 593.111 310.593 587.04 306.075 578.993C301.557 570.804 299.298 560.921 299.298 549.344C299.298 538.473 301.345 529.084 305.44 521.178C309.675 513.271 315.393 507.342 322.594 503.388C329.935 499.294 338.194 497.247 347.371 497.247C360.643 497.247 371.373 501.624 379.561 510.377C387.75 518.989 391.844 532.19 391.844 549.979V556.756H322.17C323.017 564.804 325.982 570.945 331.065 575.181C336.147 579.275 342.43 581.322 349.913 581.322C355.137 581.322 359.796 580.263 363.89 578.145C367.984 576.028 371.02 572.78 372.996 568.404L387.397 582.593C379.067 596.288 366.431 603.135 349.489 603.135ZM370.455 540.873C369.89 533.955 367.561 528.59 363.466 524.778C359.372 520.966 354.078 519.06 347.583 519.06C341.23 519.06 335.794 520.895 331.276 524.566C326.759 528.237 323.864 533.672 322.594 540.873H370.455ZM392.122 499.365H415.63L438.29 572.851L460.738 499.365H484.245L449.937 601.017H426.43L392.122 499.365ZM516.89 555.274V601.017H492.112V448.538H516.89V538.967L554.374 499.365H581.058L538.067 546.167L583.811 601.017H556.068L516.89 555.274ZM659.544 538.967C659.544 525.413 653.332 518.636 640.908 518.636C634.413 518.636 629.19 520.684 625.236 524.778C621.425 528.731 618.813 535.225 617.401 544.261V601.017H592.623V499.365H617.401V519.272H617.824C621.072 511.93 625.166 506.424 630.107 502.753C635.19 499.082 641.967 497.247 650.438 497.247C660.603 497.247 668.792 500.141 675.004 505.93C681.216 511.718 684.322 520.542 684.322 532.402V601.017H659.544V538.967ZM697.532 499.365H722.309V601.017H697.532V499.365ZM710.238 483.27C706.144 483.27 702.614 481.858 699.649 479.034C696.684 476.069 695.202 472.54 695.202 468.445C695.202 464.351 696.684 460.821 699.649 457.857C702.614 454.892 706.144 453.409 710.238 453.409C714.332 453.409 717.791 454.892 720.615 457.857C723.58 460.821 725.062 464.351 725.062 468.445C725.062 472.399 723.58 475.858 720.615 478.822C717.791 481.787 714.332 483.27 710.238 483.27ZM753.487 517.789H733.368V499.365H753.487V470.14L777.206 466.539V499.365H798.171V517.789H778.265V601.017H753.487V517.789Z" fill="white"/>
<defs>
<filter id="filter0_f_5_811" x="319.029" y="80.3294" width="317.972" height="266.013" filterUnits="userSpaceOnUse" color-interpolation-filters="sRGB">
<feFlood flood-opacity="0" result="BackgroundImageFix"/>
<feBlend mode="normal" in="SourceGraphic" in2="BackgroundImageFix" result="shape"/>
<feGaussianBlur stdDeviation="16.1723" result="effect1_foregroundBlur_5_811"/>
</filter>
<linearGradient id="paint0_linear_5_811" x1="478.015" y1="112.674" x2="478.015" y2="313.998" gradientUnits="userSpaceOnUse">
<stop stop-color="#8A8A8A"/>
<stop offset="1" stop-color="#242424"/>
</linearGradient>
<clipPath id="clip0_5_811">
<rect width="287.02" height="318.017" fill="white" transform="translate(336.49 95)"/>
</clipPath>
</defs>
</svg>
